<svg xmlns="http://www.w3.org/2000/svg" viewBox="0 0 512 512">
  <rect width="512" height="512" fill="#08111f"/>
  <circle cx="256" cy="256" r="208" fill="#0f172a"/>
  <circle cx="256" cy="256" r="188" fill="#111827" stroke="#22c55e" stroke-width="10"/>
  <path d="M122 342c48-40 95-58 134-58 54 0 106 18 134 58v58H122z" fill="#14532d"/>
  <g transform="translate(188 170)">
    <rect x="-26" y="70" width="52" height="72" rx="18" fill="#166534"/>
    <rect x="-20" y="80" width="40" height="44" rx="12" fill="#14532d"/>
    <rect x="-24" y="136" width="16" height="46" rx="6" fill="#3f6212"/>
    <rect x="8" y="136" width="16" height="46" rx="6" fill="#3f6212"/>
    <rect x="14" y="76" width="18" height="62" rx="8" fill="#65a30d" transform="rotate(18 14 76)"/>
    <rect x="42" y="92" width="76" height="18" rx="8" fill="#e2e8f0"/>
    <rect x="84" y="86" width="24" height="8" rx="4" fill="#facc15"/>
    <circle cx="0" cy="38" r="31" fill="#f59e0b"/>
    <path d="M-30 26c5-18 16-30 30-30 14 0 25 12 30 30H-30z" fill="#365314"/>
    <path d="M-21 22h42v10h-42z" fill="#86efac" opacity="0.65"/>
  </g>
  <g transform="translate(320 162)">
    <rect x="-28" y="88" width="56" height="78" rx="18" fill="#166534"/>
    <rect x="-24" y="150" width="17" height="42" rx="6" fill="#14532d"/>
    <rect x="7" y="150" width="17" height="42" rx="6" fill="#14532d"/>
    <circle cx="0" cy="46" r="34" fill="#84cc16"/>
    <circle cx="-10" cy="46" r="5" fill="#ecfccb"/>
    <circle cx="10" cy="46" r="5" fill="#ecfccb"/>
    <path d="M-14 66c12-7 24-7 36 0" stroke="#7f1d1d" stroke-width="8" stroke-linecap="round"/>
  </g>
</svg>
